<?xml version="1.0" encoding="utf-8"?>
<!-- Generator: Adobe Illustrator 26.1.0, SVG Export Plug-In . SVG Version: 6.00 Build 0)  -->
<svg version="1.1" id="a" xmlns="http://www.w3.org/2000/svg" xmlns:xlink="http://www.w3.org/1999/xlink" x="0px" y="0px"
	 viewBox="0 0 1756.1 872" style="enable-background:new 0 0 1756.1 872;" xml:space="preserve">
<style type="text/css">
	.st0{fill:#747774;}
</style>
<path class="st0" d="M739.3,288.4v285.4h-78V413.7l-52.1,77.1h-40.8L511,413.7v160.1h-71.3V288.4h71.9l82.3,111.9l73.8-111.9
	L739.3,288.4L739.3,288.4z M761.9,353v-64.6h266.5V353h-93.3v220.7h-79.6V353L761.9,353L761.9,353z M1321.9,288.4v285.4h-65.6
	l-134.2-163.1v163.1h-71.3V288.4h71l128.3,157.3V288.4H1321.9z"/>
<path class="st0" d="M878,872c-230.5,0-447.9-43-611.9-121.3C94.5,668.6,0,557,0,436s94.5-232.6,266.2-314.6C430.2,43,647.6,0,878,0
	s447.9,43,611.9,121.3c171.7,82,266.2,193.6,266.2,314.6s-94.5,232.6-266.2,314.6C1325.9,828.9,1108.5,871.9,878,872L878,872z
	 M878,64.3c-221.3,0-428.7,40.8-584.2,115.2C146,250.3,64.3,341.5,64.3,436.3s81.4,186,229.6,256.4
	C449.4,767.1,657,807.9,878.1,807.9s428.7-40.8,584.2-115.2c147.9-70.4,229.6-161.9,229.6-256.4s-81.4-186-229.6-256.4
	C1306.7,105.2,1099.4,64.3,878,64.3L878,64.3L878,64.3z"/>
</svg>
